<svg width="125" height="60" viewBox="0 0 125 60" fill="none" xmlns="http://www.w3.org/2000/svg">
<path d="M62.2873 42.7498H61.2916V35.0816H66.4304V35.9629H62.2873V38.7097H65.6864V39.5909H62.2873V42.7498ZM69.5532 42.8642C67.9853 42.8642 66.898 41.7426 66.898 39.9801C66.898 38.229 67.9738 37.0959 69.496 37.0959C71.064 37.0959 72.0139 38.1374 72.0139 39.7626C72.0139 39.9343 71.991 40.106 71.9681 40.209H67.8594C67.9166 41.3764 68.569 42.0402 69.5532 42.0402C70.6634 42.0402 71.1097 41.4336 71.3272 40.9529L71.9338 41.6396C71.5218 42.3034 70.7549 42.8642 69.5532 42.8642ZM69.496 37.9314C68.6033 37.9314 68.0081 38.4579 67.8823 39.4879H71.1212C71.0182 38.4693 70.423 37.9314 69.496 37.9314ZM74.5227 42.7498H73.5269V35.0816H74.5227V42.7498ZM77.244 42.7498H76.2482V35.0816H77.244V42.7498ZM81.1899 42.8642C79.6563 42.8642 78.5804 41.7312 78.5804 39.9801C78.5804 38.229 79.6563 37.0959 81.1899 37.0959C82.7235 37.0959 83.8108 38.229 83.8108 39.9801C83.8108 41.7312 82.7235 42.8642 81.1899 42.8642ZM81.1899 42.0287C82.1398 42.0287 82.8036 41.3764 82.8036 39.9801C82.8036 38.5723 82.1398 37.9314 81.1899 37.9314C80.2514 37.9314 79.599 38.5723 79.599 39.9801C79.599 41.3764 80.2514 42.0287 81.1899 42.0287ZM87.1386 42.7498H85.8453L84.4032 37.2104H85.5134L86.2344 40.621L86.4977 42.0287L86.841 40.621L87.8482 37.2104H89.0728L90.0685 40.621L90.4233 42.0287L90.6865 40.621L91.3961 37.2104H92.5063L91.0756 42.7498H89.7709L88.821 39.5108L88.4662 38.0344L88.0885 39.5108L87.1386 42.7498ZM95.5611 42.8642C94.4051 42.8642 93.3522 42.3606 92.9745 41.3306L93.6955 40.7698C93.8901 41.3992 94.4967 42.0287 95.5954 42.0287C96.2478 42.0287 96.6827 41.7769 96.6827 41.2848C96.6827 40.7812 96.1791 40.621 95.5267 40.4722L94.7943 40.3005C94.0046 40.1174 93.1462 39.7397 93.1462 38.7211C93.1462 37.714 93.9244 37.0959 95.1262 37.0959C96.2935 37.0959 97.1061 37.714 97.4152 38.4464L96.6598 39.0073C96.3851 38.3549 95.8586 37.9429 95.0689 37.9429C94.4967 37.9429 94.0847 38.1947 94.0847 38.6639C94.0847 39.156 94.4509 39.3277 95.2063 39.5108L95.9159 39.6939C97.1634 39.9915 97.5754 40.5065 97.5754 41.2734C97.5754 42.3721 96.6369 42.8642 95.5611 42.8642ZM104.609 42.8642C102.618 42.8642 101.702 41.8113 101.702 39.5452V35.0816H102.698V39.5452C102.698 41.239 103.236 41.9143 104.621 41.9143C106.028 41.9143 106.555 41.239 106.555 39.5452V35.0816H107.539V39.5452C107.539 41.8113 106.646 42.8642 104.609 42.8642ZM112.207 42.8642C110.765 42.8642 109.449 42.3148 108.946 40.8957L109.701 40.2319C110.056 41.4794 111.246 41.9257 112.207 41.9257C113.066 41.9257 113.787 41.5938 113.787 40.7583C113.787 39.8771 113.112 39.6596 112.093 39.4193L111.372 39.259C110.353 39.0301 109.197 38.5723 109.197 37.1303C109.197 35.734 110.411 34.9786 111.75 34.9786C113.135 34.9786 114.233 35.5852 114.702 36.7297L113.867 37.3935C113.501 36.352 112.723 35.9286 111.727 35.9286C110.88 35.9286 110.25 36.352 110.25 37.0616C110.25 37.8284 110.811 38.1145 111.692 38.332L112.528 38.538C113.615 38.8012 114.805 39.2247 114.805 40.7354C114.805 42.0631 113.695 42.8642 112.207 42.8642ZM116.441 42.7498H115.388L118.478 35.0816H119.474L122.564 42.7498H121.465L120.63 40.6095H117.276L116.441 42.7498ZM118.57 37.302L117.62 39.7283H120.286L119.336 37.302L118.959 36.1002L118.57 37.302Z" fill="black"/>
<path d="M63.8965 30.8596H61.213L67.1213 15.7506H70.0529L75.9612 30.8596H73.1649L71.7217 27.0485H65.3398L63.8965 30.8596ZM67.7302 20.7569L66.1742 24.8385H70.8873L69.3538 20.7569L68.542 18.0282L67.7302 20.7569ZM82.2571 30.8596H79.0323L75.1311 19.8774H77.9274L79.7991 25.8533L80.7011 29.2134L81.5806 25.8533L83.4298 19.8774H86.181L82.2571 30.8596ZM89.7267 31.0851C87.9226 31.0851 86.8402 30.0703 86.8402 28.4918C86.8402 26.9358 87.9226 25.9886 89.7042 25.2896L93.3799 23.7336C93.2897 22.6286 92.7936 21.8844 91.2827 21.8844C89.8169 21.8844 88.6668 22.7413 88.0354 23.8914L86.5245 22.0874C87.3814 20.9147 89.0953 19.6519 91.5308 19.6519C94.2594 19.6519 95.7929 21.2079 95.7929 23.914V28.0408C95.7929 28.5369 95.9733 28.6947 96.3792 28.6947H97.0783V30.8596H95.5223C94.3496 30.8596 93.425 30.3184 93.425 28.7398V27.928C93.0868 29.3713 92.0269 31.0851 89.7267 31.0851ZM89.2757 28.1084C89.2757 28.7398 89.7042 29.1232 90.6287 29.1232C92.2975 29.1232 93.425 28.131 93.425 26.6426V25.47L90.6062 26.7328C89.6591 27.1613 89.2757 27.5446 89.2757 28.1084ZM101.535 30.8596H99.0097V19.8774H101.535V22.8766C101.941 21.1402 103.069 19.6519 105.256 19.6519C107.399 19.6519 108.707 20.9373 108.707 23.2149V30.8596H106.158V23.9816C106.158 22.6286 105.707 21.704 104.016 21.704C102.167 21.704 101.535 22.8992 101.535 24.7032V30.8596ZM114.981 31.1077C112.906 31.1077 111.711 29.7997 111.711 27.8604V21.8393H109.997V19.8774H111.711V18.5469L114.237 16.9458V19.8774H117.597V21.8393H114.237V27.2515C114.237 28.4467 114.8 28.7398 115.545 28.7398C116.401 28.7398 117.033 28.0408 117.349 27.4093L118.138 29.6644C117.664 30.3635 116.582 31.1077 114.981 31.1077ZM122.368 18.3214H119.843V15.7506H122.368V18.3214ZM122.368 30.8596H119.843V19.8774H122.368V30.8596Z" fill="black"/>
<path d="M62.2874 42.7496H61.2917V35.0814H66.4305V35.9627H62.2874V38.7095H65.6866V39.5908H62.2874V42.7496ZM69.5533 42.864C67.9854 42.864 66.8981 41.7424 66.8981 39.9799C66.8981 38.2288 67.9739 37.0958 69.4961 37.0958C71.0641 37.0958 72.014 38.1372 72.014 39.7624C72.014 39.9341 71.9911 40.1058 71.9682 40.2088H67.8595C67.9167 41.3762 68.5691 42.04 69.5533 42.04C70.6635 42.04 71.1099 41.4334 71.3273 40.9527L71.9339 41.6394C71.5219 42.3032 70.7551 42.864 69.5533 42.864ZM69.4961 37.9312C68.6034 37.9312 68.0083 38.4577 67.8824 39.4878H71.1213C71.0183 38.4692 70.4232 37.9312 69.4961 37.9312ZM74.5228 42.7496H73.5271V35.0814H74.5228V42.7496ZM77.2441 42.7496H76.2484V35.0814H77.2441V42.7496ZM81.19 42.864C79.6564 42.864 78.5805 41.731 78.5805 39.9799C78.5805 38.2288 79.6564 37.0958 81.19 37.0958C82.7236 37.0958 83.8109 38.2288 83.8109 39.9799C83.8109 41.731 82.7236 42.864 81.19 42.864ZM81.19 42.0285C82.1399 42.0285 82.8037 41.3762 82.8037 39.9799C82.8037 38.5722 82.1399 37.9312 81.19 37.9312C80.2515 37.9312 79.5991 38.5722 79.5991 39.9799C79.5991 41.3762 80.2515 42.0285 81.19 42.0285ZM87.1387 42.7496H85.8454L84.4033 37.2102H85.5135L86.2345 40.6208L86.4978 42.0285L86.8411 40.6208L87.8483 37.2102H89.0729L90.0686 40.6208L90.4234 42.0285L90.6866 40.6208L91.3962 37.2102H92.5064L91.0758 42.7496H89.771L88.8211 39.5106L88.4663 38.0342L88.0886 39.5106L87.1387 42.7496ZM95.5612 42.864C94.4053 42.864 93.3523 42.3604 92.9746 41.3304L93.6957 40.7696C93.8902 41.3991 94.4968 42.0285 95.5955 42.0285C96.2479 42.0285 96.6828 41.7767 96.6828 41.2846C96.6828 40.781 96.1792 40.6208 95.5269 40.472L94.7944 40.3003C94.0047 40.1172 93.1463 39.7395 93.1463 38.7209C93.1463 37.7138 93.9246 37.0958 95.1263 37.0958C96.2937 37.0958 97.1063 37.7138 97.4153 38.4463L96.6599 39.0071C96.3852 38.3547 95.8588 37.9427 95.0691 37.9427C94.4968 37.9427 94.0848 38.1945 94.0848 38.6637C94.0848 39.1558 94.451 39.3275 95.2064 39.5106L95.916 39.6938C97.1635 39.9913 97.5755 40.5064 97.5755 41.2732C97.5755 42.3719 96.637 42.864 95.5612 42.864ZM104.609 42.864C102.618 42.864 101.702 41.8111 101.702 39.545V35.0814H102.698V39.545C102.698 41.2388 103.236 41.9141 104.621 41.9141C106.028 41.9141 106.555 41.2388 106.555 39.545V35.0814H107.539V39.545C107.539 41.8111 106.646 42.864 104.609 42.864ZM112.208 42.864C110.766 42.864 109.449 42.3147 108.946 40.8955L109.701 40.2317C110.056 41.4792 111.246 41.9255 112.208 41.9255C113.066 41.9255 113.787 41.5936 113.787 40.7581C113.787 39.8769 113.112 39.6594 112.093 39.4191L111.372 39.2589C110.354 39.03 109.198 38.5722 109.198 37.1301C109.198 35.7338 110.411 34.9784 111.75 34.9784C113.135 34.9784 114.233 35.585 114.703 36.7295L113.867 37.3933C113.501 36.3518 112.723 35.9284 111.727 35.9284C110.88 35.9284 110.251 36.3518 110.251 37.0614C110.251 37.8282 110.811 38.1144 111.693 38.3318L112.528 38.5378C113.615 38.8011 114.806 39.2245 114.806 40.7353C114.806 42.0629 113.695 42.864 112.208 42.864ZM116.441 42.7496H115.388L118.478 35.0814H119.474L122.564 42.7496H121.465L120.63 40.6094H117.276L116.441 42.7496ZM118.57 37.3018L117.62 39.7281H120.286L119.337 37.3018L118.959 36.1L118.57 37.3018Z" fill="black"/>
<path d="M41.7826 39.6706C34.1085 32.8594 23.6695 35.7947 22.5945 36.145C25.1962 28.7317 23.9879 22.3014 19.8332 16.8224C26.1885 11.7984 35.4409 12.3307 41.1688 18.2931C46.8967 24.2555 47.0575 33.5219 41.7826 39.6706Z" fill="black"/>
<path d="M42.9072 16.6234C36.5553 10.0113 26.3961 9.21108 19.1304 14.3585L19.5469 14.7921C26.5723 9.86995 36.3542 10.6612 42.478 17.0357C48.6017 23.4103 49 33.216 43.8001 40.0384L44.2166 40.4719C49.6499 33.4171 49.2578 23.234 42.9072 16.6234Z" fill="black"/>
<path d="M15.0711 43.3725C16.0907 44.4338 17.7776 44.4676 18.8389 43.4481C19.9002 42.4285 19.934 40.7417 18.9144 39.6804C17.8949 38.6191 16.208 38.5852 15.1467 39.6048C14.0854 40.6243 14.0516 42.3112 15.0711 43.3725Z" fill="black"/>
<path d="M44.3893 42.5067L44.3879 42.5053C44.3116 42.3915 42.4843 39.6731 38.8015 37.5322C35.4905 35.6064 30.0182 33.8337 22.5919 36.1447C25.1932 28.8198 23.6442 23.2836 21.8527 19.898C19.8746 16.1634 17.26 14.2207 17.112 14.1125L14.2889 13.9577L13.9509 38.3598L13.9273 40.0222C14.0983 39.6818 14.3176 39.3859 14.6382 39.0752L14.6424 39.0711C15.9959 37.7763 18.1463 37.8209 19.4439 39.1716C20.7415 40.5223 20.6983 42.6769 19.3461 43.9759L19.3475 43.9774C19.0242 44.2852 18.6845 44.4987 18.3573 44.6479L20.0334 44.6914L44.4308 45.3338L44.3893 42.5067ZM21.3708 41.819C21.4167 41.1421 21.3055 40.4565 21.039 39.8211C21.7645 39.5423 24.8719 38.5382 30.3263 39.2496C30.0389 39.1625 25.4235 37.8321 20.5376 38.9353C20.4229 38.7787 20.2982 38.6288 20.1593 38.4843C20.0205 38.3398 19.8758 38.2092 19.7238 38.0883C21.0221 33.2505 19.8766 28.584 19.8011 28.2934C20.2945 33.7734 19.1666 36.838 18.8589 37.5517C18.2333 37.2585 17.5527 37.1199 16.8746 37.1386L17.1051 14.8758C17.8821 15.5271 19.8149 17.3214 21.3265 20.1779C23.1057 23.5422 24.6374 29.1061 21.8241 36.5054L21.5214 37.1841L22.2078 36.8934C29.7153 34.3805 35.2133 36.1341 38.5035 38.0469C41.3055 39.6776 43.0221 41.6878 43.6362 42.4846L21.3708 41.819Z" fill="black"/>
</svg>
