<svg width="254" height="119" viewBox="0 0 254 119" fill="none" xmlns="http://www.w3.org/2000/svg">
<path d="M126.942 85.8271H124.912V70.1996H135.385V71.9956H126.942V77.5935H133.869V79.3895H126.942V85.8271ZM141.75 86.0604C138.554 86.0604 136.338 83.7746 136.338 80.1826C136.338 76.6139 138.531 74.3047 141.633 74.3047C144.828 74.3047 146.764 76.4273 146.764 79.7394C146.764 80.0893 146.718 80.4391 146.671 80.6491H138.297C138.414 83.0282 139.744 84.381 141.75 84.381C144.012 84.381 144.922 83.1448 145.365 82.1652L146.601 83.5646C145.761 84.9175 144.199 86.0604 141.75 86.0604ZM141.633 76.0074C139.814 76.0074 138.601 77.0804 138.344 79.1796H144.945C144.735 77.1037 143.522 76.0074 141.633 76.0074ZM151.877 85.8271H149.848V70.1996H151.877V85.8271ZM157.423 85.8271H155.394V70.1996H157.423V85.8271ZM165.465 86.0604C162.339 86.0604 160.147 83.7512 160.147 80.1826C160.147 76.6139 162.339 74.3047 165.465 74.3047C168.59 74.3047 170.806 76.6139 170.806 80.1826C170.806 83.7512 168.59 86.0604 165.465 86.0604ZM165.465 84.3577C167.401 84.3577 168.754 83.0282 168.754 80.1826C168.754 77.3136 167.401 76.0074 165.465 76.0074C163.552 76.0074 162.223 77.3136 162.223 80.1826C162.223 83.0282 163.552 84.3577 165.465 84.3577ZM177.588 85.8271H174.953L172.014 74.538H174.276L175.746 81.4887L176.282 84.3577L176.982 81.4887L179.034 74.538H181.53L183.559 81.4887L184.283 84.3577L184.819 81.4887L186.265 74.538H188.528L185.612 85.8271H182.953L181.017 79.2262L180.294 76.2174L179.524 79.2262L177.588 85.8271ZM194.753 86.0604C192.398 86.0604 190.252 85.0341 189.482 82.9349L190.951 81.792C191.348 83.0748 192.584 84.3577 194.823 84.3577C196.153 84.3577 197.039 83.8445 197.039 82.8416C197.039 81.8153 196.013 81.4887 194.683 81.1855L193.191 80.8357C191.581 80.4625 189.832 79.6927 189.832 77.6168C189.832 75.5643 191.418 74.3047 193.867 74.3047C196.246 74.3047 197.902 75.5643 198.532 77.057L196.992 78.2C196.433 76.8705 195.36 76.0308 193.75 76.0308C192.584 76.0308 191.744 76.5439 191.744 77.5002C191.744 78.5032 192.491 78.8531 194.03 79.2262L195.476 79.5994C198.019 80.2059 198.858 81.2555 198.858 82.8183C198.858 85.0574 196.946 86.0604 194.753 86.0604ZM213.193 86.0604C209.135 86.0604 207.269 83.9145 207.269 79.2962V70.1996H209.298V79.2962C209.298 82.7483 210.394 84.1244 213.216 84.1244C216.085 84.1244 217.158 82.7483 217.158 79.2962V70.1996H219.164V79.2962C219.164 83.9145 217.345 86.0604 213.193 86.0604ZM228.679 86.0604C225.74 86.0604 223.057 84.9408 222.031 82.0485L223.57 80.6957C224.294 83.2381 226.719 84.1478 228.679 84.1478C230.428 84.1478 231.897 83.4714 231.897 81.7686C231.897 79.9726 230.521 79.5295 228.445 79.0397L226.976 78.7131C224.9 78.2466 222.544 77.3136 222.544 74.3747C222.544 71.5291 225.017 69.9897 227.746 69.9897C230.568 69.9897 232.807 71.2259 233.763 73.5583L232.061 74.9112C231.314 72.7886 229.728 71.9256 227.699 71.9256C225.973 71.9256 224.69 72.7886 224.69 74.2348C224.69 75.7975 225.833 76.3806 227.629 76.8238L229.332 77.2436C231.548 77.7801 233.973 78.6431 233.973 81.722C233.973 84.4277 231.711 86.0604 228.679 86.0604ZM237.306 85.8271H235.16L241.458 70.1996H243.487L249.785 85.8271H247.546L245.843 81.4654H239.009L237.306 85.8271ZM241.645 74.7246L239.709 79.6694H245.143L243.207 74.7246L242.438 72.2755L241.645 74.7246Z" fill="white"/>
<path d="M130.221 60.1768H124.752L136.793 29.3847H142.768L154.809 60.1768H149.11L146.169 52.4098H133.163L130.221 60.1768ZM138.034 39.5874L134.863 47.9059H144.468L141.343 39.5874L139.689 34.0264L138.034 39.5874ZM167.64 60.1768H161.068L153.117 37.795H158.816L162.631 49.974L164.469 56.8218L166.261 49.974L170.03 37.795H175.637L167.64 60.1768ZM182.863 60.6363C179.186 60.6363 176.98 58.5682 176.98 55.3511C176.98 52.18 179.186 50.2498 182.817 48.825L190.308 45.6539C190.124 43.402 189.113 41.8853 186.034 41.8853C183.047 41.8853 180.703 43.6317 179.416 45.9756L176.337 42.299C178.083 39.9091 181.576 37.3355 186.54 37.3355C192.101 37.3355 195.226 40.5066 195.226 46.0216V54.432C195.226 55.443 195.593 55.7648 196.421 55.7648H197.845V60.1768H194.674C192.284 60.1768 190.4 59.0738 190.4 55.8567V54.2022C189.711 57.1435 187.551 60.6363 182.863 60.6363ZM181.944 54.5698C181.944 55.8567 182.817 56.638 184.701 56.638C188.102 56.638 190.4 54.6158 190.4 51.5825V49.1927L184.655 51.7664C182.725 52.6396 181.944 53.4209 181.944 54.5698ZM206.929 60.1768H201.782V37.795H206.929V43.9075C207.756 40.3687 210.054 37.3355 214.512 37.3355C218.878 37.3355 221.544 39.9551 221.544 44.5969V60.1768H216.351V46.1595C216.351 43.402 215.431 41.5177 211.984 41.5177C208.216 41.5177 206.929 43.9535 206.929 47.6301V60.1768ZM234.331 60.6823C230.102 60.6823 227.667 58.0167 227.667 54.0643V41.7934H224.174V37.795H227.667V35.0835L232.814 31.8204V37.795H239.662V41.7934H232.814V52.8234C232.814 55.2592 233.963 55.8567 235.48 55.8567C237.226 55.8567 238.513 54.432 239.156 53.1451L240.765 57.741C239.8 59.1657 237.594 60.6823 234.331 60.6823ZM249.387 34.6239H244.239V29.3847H249.387V34.6239ZM249.387 60.1768H244.239V37.795H249.387V60.1768Z" fill="white"/>
<path d="M126.942 85.8271H124.913V70.1996H135.386V71.9956H126.942V77.5935H133.87V79.3895H126.942V85.8271ZM141.75 86.0604C138.555 86.0604 136.339 83.7746 136.339 80.1826C136.339 76.6139 138.531 74.3047 141.633 74.3047C144.829 74.3047 146.765 76.4273 146.765 79.7394C146.765 80.0893 146.718 80.4391 146.672 80.6491H138.298C138.415 83.0282 139.744 84.381 141.75 84.381C144.012 84.381 144.922 83.1448 145.365 82.1652L146.602 83.5646C145.762 84.9175 144.199 86.0604 141.75 86.0604ZM141.633 76.0074C139.814 76.0074 138.601 77.0804 138.345 79.1796H144.945C144.736 77.1037 143.523 76.0074 141.633 76.0074ZM151.878 85.8271H149.848V70.1996H151.878V85.8271ZM157.424 85.8271H155.394V70.1996H157.424V85.8271ZM165.465 86.0604C162.34 86.0604 160.147 83.7512 160.147 80.1826C160.147 76.6139 162.34 74.3047 165.465 74.3047C168.591 74.3047 170.807 76.6139 170.807 80.1826C170.807 83.7512 168.591 86.0604 165.465 86.0604ZM165.465 84.3577C167.401 84.3577 168.754 83.0282 168.754 80.1826C168.754 77.3136 167.401 76.0074 165.465 76.0074C163.553 76.0074 162.223 77.3136 162.223 80.1826C162.223 83.0282 163.553 84.3577 165.465 84.3577ZM177.589 85.8271H174.953L172.014 74.538H174.277L175.746 81.4887L176.283 84.3577L176.982 81.4887L179.035 74.538H181.531L183.56 81.4887L184.283 84.3577L184.819 81.4887L186.266 74.538H188.528L185.613 85.8271H182.954L181.018 79.2262L180.294 76.2174L179.525 79.2262L177.589 85.8271ZM194.754 86.0604C192.398 86.0604 190.252 85.0341 189.482 82.9349L190.952 81.792C191.348 83.0748 192.585 84.3577 194.824 84.3577C196.153 84.3577 197.04 83.8445 197.04 82.8416C197.04 81.8153 196.013 81.4887 194.684 81.1855L193.191 80.8357C191.582 80.4625 189.832 79.6927 189.832 77.6168C189.832 75.5643 191.418 74.3047 193.867 74.3047C196.247 74.3047 197.903 75.5643 198.532 77.057L196.993 78.2C196.433 76.8705 195.36 76.0308 193.751 76.0308C192.585 76.0308 191.745 76.5439 191.745 77.5002C191.745 78.5032 192.491 78.8531 194.031 79.2262L195.477 79.5994C198.019 80.2059 198.859 81.2555 198.859 82.8183C198.859 85.0574 196.946 86.0604 194.754 86.0604ZM213.194 86.0604C209.135 86.0604 207.269 83.9145 207.269 79.2962V70.1996H209.298V79.2962C209.298 82.7483 210.395 84.1244 213.217 84.1244C216.086 84.1244 217.159 82.7483 217.159 79.2962V70.1996H219.165V79.2962C219.165 83.9145 217.345 86.0604 213.194 86.0604ZM228.679 86.0604C225.74 86.0604 223.058 84.9408 222.032 82.0485L223.571 80.6957C224.294 83.2381 226.72 84.1478 228.679 84.1478C230.428 84.1478 231.898 83.4714 231.898 81.7686C231.898 79.9726 230.522 79.5295 228.446 79.0397L226.976 78.7131C224.9 78.2466 222.545 77.3136 222.545 74.3747C222.545 71.5291 225.017 69.9897 227.746 69.9897C230.568 69.9897 232.808 71.2259 233.764 73.5583L232.061 74.9112C231.315 72.7886 229.729 71.9256 227.699 71.9256C225.973 71.9256 224.691 72.7886 224.691 74.2348C224.691 75.7975 225.833 76.3806 227.629 76.8238L229.332 77.2436C231.548 77.7801 233.974 78.6431 233.974 81.722C233.974 84.4277 231.711 86.0604 228.679 86.0604ZM237.307 85.8271H235.161L241.458 70.1996H243.488L249.785 85.8271H247.546L245.844 81.4654H239.009L237.307 85.8271ZM241.645 74.7246L239.709 79.6694H245.144L243.208 74.7246L242.438 72.2755L241.645 74.7246Z" fill="white"/>
<path d="M85.1528 78.9332C69.5131 65.0521 48.2384 71.0343 46.0477 71.7482C51.3499 56.6399 48.8873 43.5351 40.4201 32.3689C53.3721 22.1301 72.2286 23.2147 83.902 35.3662C95.5754 47.5176 95.9029 66.4023 85.1528 78.9332Z" fill="white"/>
<path d="M87.4451 31.9625C74.4998 18.4872 53.7954 16.8563 38.988 27.3468L39.8368 28.2304C54.1545 18.1991 74.09 19.8116 86.5702 32.8029C99.0504 45.7941 99.8621 65.7782 89.2646 79.6821L90.1135 80.5657C101.187 66.188 100.388 45.4349 87.4451 31.9625Z" fill="white"/>
<path d="M30.7153 86.4809C32.7931 88.6438 36.2309 88.7128 38.3939 86.635C40.5568 84.5571 40.6258 81.1193 38.5479 78.9564C36.4701 76.7934 33.0322 76.7245 30.8693 78.8023C28.7064 80.8802 28.6374 84.318 30.7153 86.4809Z" fill="white"/>
<path d="M90.4657 84.7148L90.4629 84.7119C90.3074 84.48 86.5834 78.94 79.0779 74.5768C72.3301 70.6521 61.1775 67.0393 46.0427 71.7491C51.3442 56.821 48.1873 45.5382 44.5364 38.6384C40.505 31.0274 35.1764 27.0682 34.8748 26.8477L29.1213 26.5321L28.4324 76.2634L28.3845 79.6514C28.733 78.9577 29.1798 78.3546 29.8331 77.7214L29.8419 77.713C32.6003 75.0743 36.9827 75.1651 39.6272 77.9179C42.2717 80.6707 42.1836 85.0617 39.4279 87.7091L39.4307 87.712C38.7718 88.3394 38.0795 88.7745 37.4128 89.0786L40.8286 89.1671L90.5503 90.4764L90.4657 84.7148ZM43.5543 83.3132C43.6477 81.9338 43.4212 80.5365 42.8781 79.2415C44.3566 78.6734 50.6895 76.6269 61.8054 78.0769C61.2198 77.8992 51.8137 75.1881 41.8561 77.4364C41.6223 77.1171 41.3682 76.8117 41.0853 76.5172C40.8023 76.2227 40.5074 75.9565 40.1977 75.7101C42.8436 65.8507 40.5091 56.3405 40.3551 55.7482C41.3608 66.9163 39.062 73.162 38.4351 74.6165C37.1601 74.019 35.773 73.7366 34.3909 73.7747L34.8608 28.4032C36.4443 29.7305 40.3833 33.3872 43.4639 39.2089C47.09 46.0653 50.2114 57.4045 44.4779 72.4842L43.861 73.8674L45.26 73.2749C60.5602 68.1538 71.7651 71.7275 78.4706 75.6257C84.1809 78.949 87.6793 83.046 88.9308 84.6698L43.5543 83.3132Z" fill="white"/>
</svg>
